<svg id="Layer_1" data-name="Layer 1" xmlns="http://www.w3.org/2000/svg" viewBox="0 0 259.5 253.09"><defs><style>.cls-1{fill:#000000;fill-rule:evenodd;}</style></defs><path class="cls-1" d="M265.48,149.45a129.76,129.76,0,0,0-41,252.86c6.49,1.19,8.86-2.81,8.86-6.25,0-3.08-.11-11.24-.18-22.07-36.09,7.84-43.7-17.39-43.7-17.39-5.9-15-14.41-19-14.41-19-11.78-8.05.89-7.89.89-7.89,13,.92,19.88,13.37,19.88,13.37,11.57,19.83,30.36,14.11,37.76,10.79,1.18-8.39,4.53-14.11,8.23-17.35-28.81-3.27-59.1-14.41-59.1-64.13a50.15,50.15,0,0,1,13.36-34.81c-1.33-3.28-5.79-16.48,1.27-34.34,0,0,10.9-3.49,35.68,13.3a122.93,122.93,0,0,1,65,0c24.77-16.79,35.64-13.3,35.64-13.3,7.08,17.86,2.63,31.06,1.29,34.34a50,50,0,0,1,13.34,34.81c0,49.85-30.34,60.82-59.24,64,4.66,4,8.81,11.92,8.81,24,0,17.34-.16,31.34-.16,35.59,0,3.47,2.34,7.51,8.92,6.24a129.77,129.77,0,0,0-41.1-252.85Z" transform="translate(-135.74 -149.45)"/></svg>